<svg width="931.17880859375px" height="184.4322265625px" xmlns="http://www.w3.org/2000/svg" viewBox="-215.589404296875 -17.216113281250003 931.17880859375 184.4322265625" style="background: rgba(255, 255, 255, 0);" preserveAspectRatio="xMidYMid"><defs><linearGradient id="editing-gradient-gradient" x1="0" x2="1" y1="0.5" y2="0.5" gradientUnits="objectBoundingBox"><stop offset="0" stop-color="#ffffff"></stop><stop offset="1" stop-color="#ffffff"></stop></linearGradient></defs><g><g transform="translate(-84.55406856536865, 122.88999938964844)"><path d="M12.48 0L1.04 0L13.52-68.64L35.88-68.64L52.10-21.42L60.74-68.64L72.28-68.54L59.59 0L35.78 0L20.80-45.45L12.48 0ZM117.00-17.58L117.00-17.58L117.00-17.58Q119.60-15.81 119.60-11.91L119.60-11.91L119.60-11.91Q119.60-8.01 117.62-5.51L117.62-5.51L117.62-5.51Q115.65-3.02 112.42-1.35L112.42-1.35L112.42-1.35Q105.77 2.08 98.59 2.08L98.59 2.08L98.59 2.08Q91.42 2.08 87.20 0.52L87.20 0.52L87.20 0.52Q82.99-1.04 80.18-3.95L80.18-3.95L80.18-3.95Q74.67-9.46 74.67-19.55L74.67-19.55L74.67-19.55Q74.67-35.26 83.20-44.82L83.20-44.82L83.20-44.82Q92.35-55.12 108.26-55.12L108.26-55.12L108.26-55.12Q118.14-55.12 123.03-50.96L123.03-50.96L123.03-50.96Q126.67-47.84 126.67-42.74L126.67-42.74L126.67-42.74Q126.67-24.44 95.06-24.44L95.06-24.44L95.06-24.44Q94.64-21.74 94.64-19.45L94.64-19.45L94.64-19.45Q94.64-14.66 96.77-12.84L96.77-12.84L96.77-12.84Q98.90-11.02 102.86-11.02L102.86-11.02L102.86-11.02Q106.81-11.02 111.02-12.84L111.02-12.84L111.02-12.84Q115.23-14.66 117.00-17.58ZM95.78-28.91L95.78-28.91L95.78-28.91Q103.17-28.91 107.43-33.49L107.43-33.49L107.43-33.49Q111.70-37.86 111.70-44.82L111.70-44.82L111.70-44.82Q111.70-47.22 110.81-48.52L110.81-48.52L110.81-48.52Q109.93-49.82 108.16-49.82L108.16-49.82L108.16-49.82Q106.39-49.82 104.88-49.14L104.88-49.14L104.88-49.14Q103.38-48.46 101.82-46.18L101.82-46.18L101.82-46.18Q97.97-40.98 95.78-28.91ZM167.96-51.27L167.96-51.27L167.96-51.27Q171.39-55.12 177.32-55.12L177.32-55.12L177.32-55.12Q180.96-55.12 183.77-53.14L183.77-53.14L183.77-53.14Q186.58-51.17 186.58-47.48L186.58-47.48L186.58-47.48Q186.58-43.78 185.43-39.83L185.43-39.83L185.43-39.83Q184.29-35.88 182.52-31.82L182.52-31.82L182.52-31.82Q178.98-23.92 174.10-17.37L174.10-17.37L174.10-17.37Q167.23-7.90 160.63-2.91L160.63-2.91L160.63-2.91Q154.02 2.08 146.85 2.08L146.85 2.08L146.85 2.08Q141.02 2.08 137.49 0.73L137.49 0.73L137.49 0.73Q136.86-21.11 136.08-28.91L136.08-28.91L136.08-28.91Q135.30-36.71 134.68-40.98L134.68-40.98L134.68-40.98Q133.64-49.30 130.52-51.27L130.52-51.27L130.52-51.27Q132.91-53.35 135.25-54.24L135.25-54.24L135.25-54.24Q137.59-55.12 142.43-55.12L142.43-55.12L142.43-55.12Q147.26-55.12 150.70-51.32L150.70-51.32L150.70-51.32Q154.13-47.53 154.80-40.82L154.80-40.82L154.80-40.82Q155.48-34.11 155.48-26.00L155.48-26.00L155.48-26.00Q155.48-17.89 154.86-8.11L154.86-8.11L154.86-8.11Q158.08-10.40 161.51-17.37L161.51-17.37L161.51-17.37Q166.19-27.04 167.86-38.69L167.86-38.69L167.86-38.69Q168.38-42.22 168.38-45.97L168.38-45.97L168.38-45.97Q168.38-49.71 167.96-51.27ZM231.50-17.58L231.50-17.58L231.50-17.58Q234.10-15.81 234.10-11.91L234.10-11.91L234.10-11.91Q234.10-8.01 232.13-5.51L232.13-5.51L232.13-5.51Q230.15-3.02 226.93-1.35L226.93-1.35L226.93-1.35Q220.27 2.08 213.10 2.08L213.10 2.08L213.10 2.08Q205.92 2.08 201.71 0.52L201.71 0.52L201.71 0.52Q197.50-1.04 194.69-3.95L194.69-3.95L194.69-3.95Q189.18-9.46 189.18-19.55L189.18-19.55L189.18-19.55Q189.18-35.26 197.70-44.82L197.70-44.82L197.70-44.82Q206.86-55.12 222.77-55.12L222.77-55.12L222.77-55.12Q232.65-55.12 237.54-50.96L237.54-50.96L237.54-50.96Q241.18-47.84 241.18-42.74L241.18-42.74L241.18-42.74Q241.18-24.44 209.56-24.44L209.56-24.44L209.56-24.44Q209.14-21.74 209.14-19.45L209.14-19.45L209.14-19.45Q209.14-14.66 211.28-12.84L211.28-12.84L211.28-12.84Q213.41-11.02 217.36-11.02L217.36-11.02L217.36-11.02Q221.31-11.02 225.52-12.84L225.52-12.84L225.52-12.84Q229.74-14.66 231.50-17.58ZM210.29-28.91L210.29-28.91L210.29-28.91Q217.67-28.91 221.94-33.49L221.94-33.49L221.94-33.49Q226.20-37.86 226.20-44.82L226.20-44.82L226.20-44.82Q226.20-47.22 225.32-48.52L225.32-48.52L225.32-48.52Q224.43-49.82 222.66-49.82L222.66-49.82L222.66-49.82Q220.90-49.82 219.39-49.14L219.39-49.14L219.39-49.14Q217.88-48.46 216.32-46.18L216.32-46.18L216.32-46.18Q212.47-40.98 210.29-28.91ZM277.26-29.22L277.26-29.22L277.26-29.22Q281.01-35.88 281.01-42.64L281.01-42.64L281.01-42.64Q281.01-47.11 277.78-47.11L277.78-47.11L277.78-47.11Q275.29-47.11 272.69-42.85L272.69-42.85L272.69-42.85Q269.98-38.58 269.15-33.07L269.15-33.07L263.74 0L242.22 2.08L252.82-53.04L269.98-55.12L268.11-44.62L268.11-44.62Q273.21-55.12 284.65-55.12L284.65-55.12L284.65-55.12Q290.68-55.12 293.96-52.00L293.96-52.00L293.96-52.00Q297.23-48.88 297.23-42.48L297.23-42.48L297.23-42.48Q297.23-36.09 293.02-32.03L293.02-32.03L293.02-32.03Q288.81-27.98 281.63-27.98L281.63-27.98L281.63-27.98Q278.51-27.98 277.26-29.22ZM360.98-69.37L360.98-69.37L360.98-69.37Q386.46-69.37 386.46-51.38L386.46-51.38L386.46-51.38Q386.46-41.50 380.12-35.57L380.12-35.57L380.12-35.57Q373.88-29.64 362.96-29.64L362.96-29.64L362.96-29.64Q357.86-29.64 353.91-32.55L353.91-32.55L353.91-32.55Q352.04-33.80 350.79-35.46L350.79-35.46L350.79-35.46Q358.38-35.46 362.39-40.09L362.39-40.09L362.39-40.09Q366.39-44.72 366.39-53.77L366.39-53.77L366.39-53.77Q366.39-62.82 357.45-62.82L357.45-62.82L354.95-62.82L354.95-62.82Q354.33-62.82 353.81-62.71L353.81-62.71L341.85 0L319.28 0L332.07-68.12L332.07-68.12Q343.20-69.16 349.65-69.26L349.65-69.26L349.65-69.26Q356.10-69.37 360.98-69.37ZM411.84-5.72L411.84-5.72L411.84-5.72Q408.62 2.08 398.32 2.08L398.32 2.08L398.32 2.08Q393.12 2.08 389.79-1.56L389.79-1.56L389.79-1.56Q387.09-4.58 387.09-8.01L387.09-8.01L387.09-8.01Q387.09-15.81 390.73-32.86L390.73-32.86L398.32-72.80L419.43-74.88L409.34-22.26L409.34-22.26Q407.58-14.56 407.58-11.86L407.58-11.86L407.58-11.86Q407.58-5.93 411.84-5.72ZM425.20-3.12L425.20-3.12L425.20-3.12Q422.76-5.82 421.67-10.09L421.67-10.09L421.67-10.09Q420.58-14.35 420.58-21.32L420.58-21.32L420.58-21.32Q420.58-28.29 422.97-34.63L422.97-34.63L422.97-34.63Q425.36-40.98 429.73-45.55L429.73-45.55L429.73-45.55Q438.67-55.12 453.44-55.12L453.44-55.12L453.44-55.12Q458.74-55.12 462.59-53.35L462.59-53.35L480.38-55.12L472.68-14.56L472.68-14.56Q472.37-13.31 472.37-11.02L472.37-11.02L472.37-11.02Q472.37-8.74 473.77-7.28L473.77-7.28L473.77-7.28Q475.18-5.82 477.26-5.62L477.26-5.62L477.26-5.62Q476.22-2.08 472.42 0L472.42 0L472.42 0Q468.62 2.08 464.36 2.08L464.36 2.08L464.36 2.08Q460.10 2.08 457.24 0.47L457.24 0.47L457.24 0.47Q454.38-1.14 453.54-3.85L453.54-3.85L453.54-3.85Q451.88-1.25 448.34 0.42L448.34 0.42L448.34 0.42Q444.81 2.08 440.08 2.08L440.08 2.08L440.08 2.08Q435.34 2.08 431.50 0.83L431.50 0.83L431.50 0.83Q427.65-0.42 425.20-3.12ZM447.15-45.34L447.15-45.34L447.15-45.34Q445.95-43.47 444.91-40.30L444.91-40.30L444.91-40.30Q443.87-37.13 442.16-28.65L442.16-28.65L442.16-28.65Q440.44-20.18 440.44-14.14L440.44-14.14L440.44-14.14Q440.44-8.11 441.38-6.34L441.38-6.34L441.38-6.34Q442.31-4.58 443.98-4.58L443.98-4.58L443.98-4.58Q447.30-4.58 449.75-7.75L449.75-7.75L449.75-7.75Q452.19-10.92 453.13-16.54L453.13-16.54L458.64-47.01L458.64-47.01Q456.46-48.88 453.91-48.88L453.91-48.88L453.91-48.88Q451.36-48.88 449.85-48.05L449.85-48.05L449.85-48.05Q448.34-47.22 447.15-45.34ZM519.06-11.75L519.06-11.75L519.06-11.75Q513.66-6.14 503.78-6.14L503.78-6.14L503.78-6.14Q491.40-6.14 488.80-15.18L488.80-15.18L488.80-15.18Q487.97-17.89 487.97-20.90L487.97-20.90L487.97-20.90Q487.97-23.92 488.59-27.04L488.59-27.04L493.48-53.04L514.59-55.12L508.87-24.86L508.87-24.86Q508.66-23.50 508.35-22.05L508.35-22.05L508.35-22.05Q508.04-20.59 508.04-19.08L508.04-19.08L508.04-19.08Q508.04-17.58 508.56-16.59L508.56-16.59L508.56-16.59Q509.08-15.60 509.81-14.98L509.81-14.98L509.81-14.98Q511.06-14.14 513.29-14.14L513.29-14.14L513.29-14.14Q515.53-14.14 517.45-16.85L517.45-16.85L517.45-16.85Q519.38-19.55 520.31-24.23L520.31-24.23L526.03-53.04L546.52-55.12L538.72-14.25L538.72-14.25Q534.87 5.72 526.97 13.62L526.97 13.62L526.97 13.62Q522.91 17.68 517.66 19.29L517.66 19.29L517.66 19.29Q512.41 20.90 505.65 20.90L505.65 20.90L505.65 20.90Q494.73 20.90 488.49 17.47L488.49 17.47L488.49 17.47Q482.25 14.04 482.25 8.32L482.25 8.32L482.25 8.32Q482.25 4.06 485.47 1.61L485.47 1.61L485.47 1.61Q488.70-0.83 493.69-0.83L493.69-0.83L493.69-0.83Q498.06-0.83 501.38 1.04L501.38 1.04L501.38 1.04Q503.36 2.18 504.30 3.64L504.30 3.64L504.30 3.64Q501.90 5.72 501.90 9.15L501.90 9.15L501.90 9.15Q501.90 13.73 506.06 13.73L506.06 13.73L506.06 13.73Q512.93 13.73 516.88-2.08L516.88-2.08L516.88-2.08Q518.02-6.76 519.06-11.75ZM592.38-17.58L592.38-17.58L592.38-17.58Q594.98-15.81 594.98-11.91L594.98-11.91L594.98-11.91Q594.98-8.01 593.01-5.51L593.01-5.51L593.01-5.51Q591.03-3.02 587.81-1.35L587.81-1.35L587.81-1.35Q581.15 2.08 573.98 2.08L573.98 2.08L573.98 2.08Q566.80 2.08 562.59 0.52L562.59 0.52L562.59 0.52Q558.38-1.04 555.57-3.95L555.57-3.95L555.57-3.95Q550.06-9.46 550.06-19.55L550.06-19.55L550.06-19.55Q550.06-35.26 558.58-44.82L558.58-44.82L558.58-44.82Q567.74-55.12 583.65-55.12L583.65-55.12L583.65-55.12Q593.53-55.12 598.42-50.96L598.42-50.96L598.42-50.96Q602.06-47.84 602.06-42.74L602.06-42.74L602.06-42.74Q602.06-24.44 570.44-24.44L570.44-24.44L570.44-24.44Q570.02-21.74 570.02-19.45L570.02-19.45L570.02-19.45Q570.02-14.66 572.16-12.84L572.16-12.84L572.16-12.84Q574.29-11.02 578.24-11.02L578.24-11.02L578.24-11.02Q582.19-11.02 586.40-12.84L586.40-12.84L586.40-12.84Q590.62-14.66 592.38-17.58ZM571.17-28.91L571.17-28.91L571.17-28.91Q578.55-28.91 582.82-33.49L582.82-33.49L582.82-33.49Q587.08-37.86 587.08-44.82L587.08-44.82L587.08-44.82Q587.08-47.22 586.20-48.52L586.20-48.52L586.20-48.52Q585.31-49.82 583.54-49.82L583.54-49.82L583.54-49.82Q581.78-49.82 580.27-49.14L580.27-49.14L580.27-49.14Q578.76-48.46 577.20-46.18L577.20-46.18L577.20-46.18Q573.35-40.98 571.17-28.91ZM638.35-55.12L638.35-55.12L638.35-55.12Q642.10-55.12 645.01-54.29L645.01-54.29L645.01-54.29Q645.11-54.70 645.32-55.85L645.32-55.85L645.84-59.07L645.84-59.07Q646.26-61.15 646.88-64.58L646.88-64.58L648.54-72.80L669.24-74.88L657.70-14.56L657.70-14.56Q657.59-13.94 657.59-12.90L657.59-12.90L657.59-11.23L657.59-11.23Q657.59-8.94 658.74-7.23L658.74-7.23L658.74-7.23Q659.88-5.51 661.75-5.51L661.75-5.51L661.75-5.51Q659.67-0.62 653.33 1.46L653.33 1.46L653.33 1.46Q651.14 2.08 648.08 2.08L648.08 2.08L648.08 2.08Q645.01 2.08 642.20 0.47L642.20 0.47L642.20 0.47Q639.39-1.14 638.56-3.85L638.56-3.85L638.56-3.85Q636.90-1.14 633.57 0.47L633.57 0.47L633.57 0.47Q630.24 2.08 625.40 2.08L625.40 2.08L625.40 2.08Q620.57 2.08 616.56 0.83L616.56 0.83L616.56 0.83Q612.56-0.42 610.06-3.12L610.06-3.12L610.06-3.12Q605.49-8.42 605.49-20.49L605.49-20.49L605.49-20.49Q605.49-36.09 614.64-45.55L614.64-45.55L614.64-45.55Q623.79-55.12 638.35-55.12ZM637.62-48.88L637.62-48.88L637.62-48.88Q633.78-48.88 631.70-44.72L631.70-44.72L631.70-44.72Q629.62-40.56 627.48-30.26L627.48-30.26L627.48-30.26Q625.35-19.97 625.35-10.71L625.35-10.71L625.35-10.71Q625.35-4.37 629.10-4.37L629.10-4.37L629.10-4.37Q632.42-4.37 634.76-7.70L634.76-7.70L634.76-7.70Q637.10-11.02 638.04-16.54L638.04-16.54L643.66-47.01L643.66-47.01Q641.47-48.88 637.62-48.88Z" fill="url(#editing-gradient-gradient)"></path></g></g><style>text {
  font-size: 64px;
  font-family: Arial Black;
  dominant-baseline: central;
  text-anchor: middle;
}</style></svg>