<svg width="667.4025634765625px" height="122.02138671875px" xmlns="http://www.w3.org/2000/svg" viewBox="-83.70128173828124 13.989306640625003 667.4025634765625 122.02138671875" style="background: rgba(0, 0, 0, 0);" preserveAspectRatio="xMidYMid"><defs><linearGradient id="editing-gradient-gradient" x1="0" x2="1" y1="0.5" y2="0.5" gradientUnits="objectBoundingBox"><stop offset="0" stop-color="#ffffff"></stop><stop offset="1" stop-color="#ffffff"></stop></linearGradient></defs><g><g transform="translate(11.184999942779541, 98.9921875)"><path d="M2.69-39.68L2.69-39.68L2.69-39.68Q4.54-43.52 9.70-43.52L9.70-43.52L9.70-43.52Q14.85-43.52 17.25-40.54L17.25-40.54L17.25-40.54Q19.65-37.57 19.65-30.72L19.65-30.72L19.65-7.87L35.20-42.18L42.82-42.18L22.91 0L7.94 0L6.02-30.72L6.02-30.72Q5.82-34.11 4.90-36.42L4.90-36.42L4.90-36.42Q3.97-38.72 2.69-39.68ZM65.15-10.82L65.15-10.82L65.15-10.82Q66.75-9.73 66.75-7.33L66.75-7.33L66.75-7.33Q66.75-4.93 65.54-3.39L65.54-3.39L65.54-3.39Q64.32-1.86 62.34-0.83L62.34-0.83L62.34-0.83Q58.24 1.28 53.82 1.28L53.82 1.28L53.82 1.28Q49.41 1.28 46.82 0.32L46.82 0.32L46.82 0.32Q44.22-0.64 42.50-2.43L42.50-2.43L42.50-2.43Q39.10-5.82 39.10-12.03L39.10-12.03L39.10-12.03Q39.10-21.70 44.35-27.58L44.35-27.58L44.35-27.58Q49.98-33.92 59.78-33.92L59.78-33.92L59.78-33.92Q65.86-33.92 68.86-31.36L68.86-31.36L68.86-31.36Q71.10-29.44 71.10-26.30L71.10-26.30L71.10-26.30Q71.10-15.04 51.65-15.04L51.65-15.04L51.65-15.04Q51.39-13.38 51.39-11.97L51.39-11.97L51.39-11.97Q51.39-9.02 52.70-7.90L52.70-7.90L52.70-7.90Q54.02-6.78 56.45-6.78L56.45-6.78L56.45-6.78Q58.88-6.78 61.47-7.90L61.47-7.90L61.47-7.90Q64.06-9.02 65.15-10.82ZM52.10-17.79L52.10-17.79L52.10-17.79Q56.64-17.79 59.26-20.61L59.26-20.61L59.26-20.61Q61.89-23.30 61.89-27.58L61.89-27.58L61.89-27.58Q61.89-29.06 61.34-29.86L61.34-29.86L61.34-29.86Q60.80-30.66 59.71-30.66L59.71-30.66L59.71-30.66Q58.62-30.66 57.70-30.24L57.70-30.24L57.70-30.24Q56.77-29.82 55.81-28.42L55.81-28.42L55.81-28.42Q53.44-25.22 52.10-17.79ZM93.31-17.98L93.31-17.98L93.31-17.98Q95.62-22.08 95.62-26.24L95.62-26.24L95.62-26.24Q95.62-28.99 93.63-28.99L93.63-28.99L93.63-28.99Q92.10-28.99 90.50-26.37L90.50-26.37L90.50-26.37Q88.83-23.74 88.32-20.35L88.32-20.35L84.99 0L71.74 1.28L78.27-32.64L88.83-33.92L87.68-27.46L87.68-27.46Q90.82-33.92 97.86-33.92L97.86-33.92L97.86-33.92Q101.57-33.92 103.58-32L103.58-32L103.58-32Q105.60-30.08 105.60-26.14L105.60-26.14L105.60-26.14Q105.60-22.21 103.01-19.71L103.01-19.71L103.01-19.71Q100.42-17.22 96-17.22L96-17.22L96-17.22Q94.08-17.22 93.31-17.98ZM107.65-6.40L107.65-6.40L107.65-6.40Q107.65-8.13 108.54-12.48L108.54-12.48L111.94-29.76L108.16-29.76L108.42-31.68L108.42-31.68Q116.10-33.98 123.52-39.62L123.52-39.62L126.59-39.62L125.06-32.64L130.05-32.64L129.47-29.76L124.54-29.76L121.28-12.48L121.28-12.48Q120.45-8.51 120.45-7.17L120.45-7.17L120.45-7.17Q120.45-4.10 123.14-3.46L123.14-3.46L123.14-3.46Q122.50-1.28 120.19 0L120.19 0L120.19 0Q117.89 1.28 114.62 1.28L114.62 1.28L114.62 1.28Q111.36 1.28 109.50-0.77L109.50-0.77L109.50-0.77Q107.65-2.82 107.65-6.40ZM145.09-3.52L145.09-3.52L145.09-3.52Q143.10 1.28 136.77 1.28L136.77 1.28L136.77 1.28Q133.50 1.28 131.46-0.96L131.46-0.96L131.46-0.96Q129.73-2.94 129.73-4.93L129.73-4.93L129.73-4.93Q129.73-10.11 132.10-20.22L132.10-20.22L134.46-32.64L147.46-33.92L143.55-13.70L143.55-13.70Q142.46-8.96 142.46-7.30L142.46-7.30L142.46-7.30Q142.46-3.65 145.09-3.52ZM135.62-41.54L135.62-41.54L135.62-41.54Q135.62-44.03 137.70-45.38L137.70-45.38L137.70-45.38Q139.78-46.72 142.78-46.72L142.78-46.72L142.78-46.72Q145.79-46.72 147.62-45.38L147.62-45.38L147.62-45.38Q149.44-44.03 149.44-41.54L149.44-41.54L149.44-41.54Q149.44-39.04 147.42-37.76L147.42-37.76L147.42-37.76Q145.41-36.48 142.40-36.48L142.40-36.48L142.40-36.48Q139.39-36.48 137.50-37.76L137.50-37.76L137.50-37.76Q135.62-39.04 135.62-41.54ZM181.95-26.62L181.95-26.62L181.95-26.62Q181.95-23.94 179.71-22.27L179.71-22.27L179.71-22.27Q177.47-20.61 173.82-20.61L173.82-20.61L173.82-20.61Q172.29-20.61 171.39-21.06L171.39-21.06L171.39-21.06Q172.10-22.72 172.32-24.80L172.32-24.80L172.32-24.80Q172.54-26.88 172.54-27.46L172.54-27.46L172.54-27.46Q172.54-30.14 170.69-30.14L170.69-30.14L170.69-30.14Q169.41-30.14 167.97-28.54L167.97-28.54L167.97-28.54Q166.53-26.94 165.31-24.45L165.31-24.45L165.31-24.45Q162.62-18.69 162.62-12.86L162.62-12.86L162.62-12.86Q162.62-9.66 163.84-8.22L163.84-8.22L163.84-8.22Q165.06-6.78 167.74-6.78L167.74-6.78L167.74-6.78Q171.46-6.78 174.40-9.86L174.40-9.86L174.40-9.86Q175.23-10.82 175.68-11.90L175.68-11.90L175.68-11.90Q178.11-10.62 178.11-7.10L178.11-7.10L178.11-7.10Q178.11-3.52 174.14-1.15L174.14-1.15L174.14-1.15Q170.05 1.28 163.52 1.28L163.52 1.28L163.52 1.28Q150.53 1.28 150.53-12.48L150.53-12.48L150.53-12.48Q150.53-22.53 156.22-28.29L156.22-28.29L156.22-28.29Q161.73-33.92 171.84-33.92L171.84-33.92L171.84-33.92Q181.95-33.92 181.95-26.62ZM186.46-1.92L186.46-1.92L186.46-1.92Q184.96-3.58 184.29-6.21L184.29-6.21L184.29-6.21Q183.62-8.83 183.62-13.12L183.62-13.12L183.62-13.12Q183.62-17.41 185.09-21.31L185.09-21.31L185.09-21.31Q186.56-25.22 189.25-28.03L189.25-28.03L189.25-28.03Q194.75-33.92 203.84-33.92L203.84-33.92L203.84-33.92Q207.10-33.92 209.47-32.83L209.47-32.83L220.42-33.92L215.68-8.96L215.68-8.96Q215.49-8.19 215.49-6.78L215.49-6.78L215.49-6.78Q215.49-5.38 216.35-4.48L216.35-4.48L216.35-4.48Q217.22-3.58 218.50-3.46L218.50-3.46L218.50-3.46Q217.86-1.28 215.52 0L215.52 0L215.52 0Q213.18 1.28 210.56 1.28L210.56 1.28L210.56 1.28Q207.94 1.28 206.18 0.29L206.18 0.29L206.18 0.29Q204.42-0.70 203.90-2.37L203.90-2.37L203.90-2.37Q202.88-0.77 200.70 0.26L200.70 0.26L200.70 0.26Q198.53 1.28 195.62 1.28L195.62 1.28L195.62 1.28Q192.70 1.28 190.34 0.51L190.34 0.51L190.34 0.51Q187.97-0.26 186.46-1.92ZM199.97-27.90L199.97-27.90L199.97-27.90Q199.23-26.75 198.59-24.80L198.59-24.80L198.59-24.80Q197.95-22.85 196.90-17.63L196.90-17.63L196.90-17.63Q195.84-12.42 195.84-8.70L195.84-8.70L195.84-8.70Q195.84-4.99 196.42-3.90L196.42-3.90L196.42-3.90Q196.99-2.82 198.02-2.82L198.02-2.82L198.02-2.82Q200.06-2.82 201.57-4.77L201.57-4.77L201.57-4.77Q203.07-6.72 203.65-10.18L203.65-10.18L207.04-28.93L207.04-28.93Q205.70-30.08 204.13-30.08L204.13-30.08L204.13-30.08Q202.56-30.08 201.63-29.57L201.63-29.57L201.63-29.57Q200.70-29.06 199.97-27.90ZM239.17-3.52L239.17-3.52L239.17-3.52Q237.18 1.28 230.85 1.28L230.85 1.28L230.85 1.28Q227.65 1.28 225.60-0.96L225.60-0.96L225.60-0.96Q223.94-2.82 223.94-4.93L223.94-4.93L223.94-4.93Q223.94-9.73 226.18-20.22L226.18-20.22L230.85-44.80L243.84-46.08L237.63-13.70L237.63-13.70Q236.54-8.96 236.54-7.30L236.54-7.30L236.54-7.30Q236.54-3.65 239.17-3.52ZM285.89 1.28L285.89 1.28L285.89 1.28Q277.70 1.28 276.93-10.37L276.93-10.37L265.92-10.37L265.92-10.37Q264.64-7.42 263.74-4.86L263.74-4.86L262.08 0L253.12 0L273.28-42.24L287.04-42.24L289.73-11.14L289.73-11.14Q290.37-4.42 292.93-2.43L292.93-2.43L292.93-2.43Q291.07 1.28 285.89 1.28ZM271.42-23.17L267.90-15.04L276.74-15.04L275.97-31.49L275.97-33.22L271.42-23.17ZM316.67-17.98L316.67-17.98L316.67-17.98Q318.98-22.08 318.98-26.24L318.98-26.24L318.98-26.24Q318.98-28.99 316.99-28.99L316.99-28.99L316.99-28.99Q315.46-28.99 313.86-26.37L313.86-26.37L313.86-26.37Q312.19-23.74 311.68-20.35L311.68-20.35L308.35 0L295.10 1.28L301.63-32.64L312.19-33.92L311.04-27.46L311.04-27.46Q314.18-33.92 321.22-33.92L321.22-33.92L321.22-33.92Q324.93-33.92 326.94-32L326.94-32L326.94-32Q328.96-30.08 328.96-26.14L328.96-26.14L328.96-26.14Q328.96-22.21 326.37-19.71L326.37-19.71L326.37-19.71Q323.78-17.22 319.36-17.22L319.36-17.22L319.36-17.22Q317.44-17.22 316.67-17.98ZM361.41-26.62L361.41-26.62L361.41-26.62Q361.41-23.94 359.17-22.27L359.17-22.27L359.17-22.27Q356.93-20.61 353.28-20.61L353.28-20.61L353.28-20.61Q351.74-20.61 350.85-21.06L350.85-21.06L350.85-21.06Q351.55-22.72 351.78-24.80L351.78-24.80L351.78-24.80Q352-26.88 352-27.46L352-27.46L352-27.46Q352-30.14 350.14-30.14L350.14-30.14L350.14-30.14Q348.86-30.14 347.42-28.54L347.42-28.54L347.42-28.54Q345.98-26.94 344.77-24.45L344.77-24.45L344.77-24.45Q342.08-18.69 342.08-12.86L342.08-12.86L342.08-12.86Q342.08-9.66 343.30-8.22L343.30-8.22L343.30-8.22Q344.51-6.78 347.20-6.78L347.20-6.78L347.20-6.78Q350.91-6.78 353.86-9.86L353.86-9.86L353.86-9.86Q354.69-10.82 355.14-11.90L355.14-11.90L355.14-11.90Q357.57-10.62 357.57-7.10L357.57-7.10L357.57-7.10Q357.57-3.52 353.60-1.15L353.60-1.15L353.60-1.15Q349.50 1.28 342.98 1.28L342.98 1.28L342.98 1.28Q329.98 1.28 329.98-12.48L329.98-12.48L329.98-12.48Q329.98-22.53 335.68-28.29L335.68-28.29L335.68-28.29Q341.18-33.92 351.30-33.92L351.30-33.92L351.30-33.92Q361.41-33.92 361.41-26.62ZM365.92-1.92L365.92-1.92L365.92-1.92Q364.42-3.58 363.74-6.21L363.74-6.21L363.74-6.21Q363.07-8.83 363.07-13.12L363.07-13.12L363.07-13.12Q363.07-17.41 364.54-21.31L364.54-21.31L364.54-21.31Q366.02-25.22 368.70-28.03L368.70-28.03L368.70-28.03Q374.21-33.92 383.30-33.92L383.30-33.92L383.30-33.92Q386.56-33.92 388.93-32.83L388.93-32.83L399.87-33.92L395.14-8.96L395.14-8.96Q394.94-8.19 394.94-6.78L394.94-6.78L394.94-6.78Q394.94-5.38 395.81-4.48L395.81-4.48L395.81-4.48Q396.67-3.58 397.95-3.46L397.95-3.46L397.95-3.46Q397.31-1.28 394.98 0L394.98 0L394.98 0Q392.64 1.28 390.02 1.28L390.02 1.28L390.02 1.28Q387.39 1.28 385.63 0.29L385.63 0.29L385.63 0.29Q383.87-0.70 383.36-2.37L383.36-2.37L383.36-2.37Q382.34-0.77 380.16 0.26L380.16 0.26L380.16 0.26Q377.98 1.28 375.07 1.28L375.07 1.28L375.07 1.28Q372.16 1.28 369.79 0.51L369.79 0.51L369.79 0.51Q367.42-0.26 365.92-1.92ZM379.42-27.90L379.42-27.90L379.42-27.90Q378.69-26.75 378.05-24.80L378.05-24.80L378.05-24.80Q377.41-22.85 376.35-17.63L376.35-17.63L376.35-17.63Q375.30-12.42 375.30-8.70L375.30-8.70L375.30-8.70Q375.30-4.99 375.87-3.90L375.87-3.90L375.87-3.90Q376.45-2.82 377.47-2.82L377.47-2.82L377.47-2.82Q379.52-2.82 381.02-4.77L381.02-4.77L381.02-4.77Q382.53-6.72 383.10-10.18L383.10-10.18L386.50-28.93L386.50-28.93Q385.15-30.08 383.58-30.08L383.58-30.08L383.58-30.08Q382.02-30.08 381.09-29.57L381.09-29.57L381.09-29.57Q380.16-29.06 379.42-27.90ZM423.23-33.92L423.23-33.92L423.23-33.92Q425.54-33.92 427.33-33.41L427.33-33.41L427.33-33.41Q427.39-33.66 427.52-34.37L427.52-34.37L427.84-36.35L427.84-36.35Q428.10-37.63 428.48-39.74L428.48-39.74L429.50-44.80L442.24-46.08L435.14-8.96L435.14-8.96Q435.07-8.58 435.07-7.94L435.07-7.94L435.07-6.91L435.07-6.91Q435.07-5.50 435.78-4.45L435.78-4.45L435.78-4.45Q436.48-3.39 437.63-3.39L437.63-3.39L437.63-3.39Q436.35-0.38 432.45 0.90L432.45 0.90L432.45 0.90Q431.10 1.28 429.22 1.28L429.22 1.28L429.22 1.28Q427.33 1.28 425.60 0.29L425.60 0.29L425.60 0.29Q423.87-0.70 423.36-2.37L423.36-2.37L423.36-2.37Q422.34-0.70 420.29 0.29L420.29 0.29L420.29 0.29Q418.24 1.28 415.26 1.28L415.26 1.28L415.26 1.28Q412.29 1.28 409.82 0.51L409.82 0.51L409.82 0.51Q407.36-0.26 405.82-1.92L405.82-1.92L405.82-1.92Q403.01-5.18 403.01-12.61L403.01-12.61L403.01-12.61Q403.01-22.21 408.64-28.03L408.64-28.03L408.64-28.03Q414.27-33.92 423.23-33.92ZM422.78-30.08L422.78-30.08L422.78-30.08Q420.42-30.08 419.14-27.52L419.14-27.52L419.14-27.52Q417.86-24.96 416.54-18.62L416.54-18.62L416.54-18.62Q415.23-12.29 415.23-6.59L415.23-6.59L415.23-6.59Q415.23-2.69 417.54-2.69L417.54-2.69L417.54-2.69Q419.58-2.69 421.02-4.74L421.02-4.74L421.02-4.74Q422.46-6.78 423.04-10.18L423.04-10.18L426.50-28.93L426.50-28.93Q425.15-30.08 422.78-30.08ZM468.99-10.82L468.99-10.82L468.99-10.82Q470.59-9.73 470.59-7.33L470.59-7.33L470.59-7.33Q470.59-4.93 469.38-3.39L469.38-3.39L469.38-3.39Q468.16-1.86 466.18-0.83L466.18-0.83L466.18-0.83Q462.08 1.28 457.66 1.28L457.66 1.28L457.66 1.28Q453.25 1.28 450.66 0.32L450.66 0.32L450.66 0.32Q448.06-0.64 446.34-2.43L446.34-2.43L446.34-2.43Q442.94-5.82 442.94-12.03L442.94-12.03L442.94-12.03Q442.94-21.70 448.19-27.58L448.19-27.58L448.19-27.58Q453.82-33.92 463.62-33.92L463.62-33.92L463.62-33.92Q469.70-33.92 472.70-31.36L472.70-31.36L472.70-31.36Q474.94-29.44 474.94-26.30L474.94-26.30L474.94-26.30Q474.94-15.04 455.49-15.04L455.49-15.04L455.49-15.04Q455.23-13.38 455.23-11.97L455.23-11.97L455.23-11.97Q455.23-9.02 456.54-7.90L456.54-7.90L456.54-7.90Q457.86-6.78 460.29-6.78L460.29-6.78L460.29-6.78Q462.72-6.78 465.31-7.90L465.31-7.90L465.31-7.90Q467.90-9.02 468.99-10.82ZM455.94-17.79L455.94-17.79L455.94-17.79Q460.48-17.79 463.10-20.61L463.10-20.61L463.10-20.61Q465.73-23.30 465.73-27.58L465.73-27.58L465.73-27.58Q465.73-29.06 465.18-29.86L465.18-29.86L465.18-29.86Q464.64-30.66 463.55-30.66L463.55-30.66L463.55-30.66Q462.46-30.66 461.54-30.24L461.54-30.24L461.54-30.24Q460.61-29.82 459.65-28.42L459.65-28.42L459.65-28.42Q457.28-25.22 455.94-17.79Z" fill="url(#editing-gradient-gradient)"></path></g></g><style>text {
  font-size: 64px;
  font-family: Arial Black;
  dominant-baseline: central;
  text-anchor: middle;
}</style></svg>