<svg width="661.2612060546875px" height="184.4322265625px" xmlns="http://www.w3.org/2000/svg" viewBox="-80.63060302734374 -17.216113281250003 661.2612060546875 184.4322265625" style="background: rgba(255, 255, 255, 0);" preserveAspectRatio="xMidYMid"><defs><linearGradient id="editing-gradient-gradient" x1="0" x2="1" y1="0.5" y2="0.5" gradientUnits="objectBoundingBox"><stop offset="0" stop-color="#ffffff"></stop><stop offset="1" stop-color="#ffffff"></stop></linearGradient></defs><g><g transform="translate(15.637180805206299, 122.88999938964844)"><path d="M53.87-27.35L53.87-27.35L53.87-27.35Q55.02-25.17 55.02-20.90L55.02-20.90L55.02-20.90Q55.02-16.64 51.84-13.68L51.84-13.68L51.84-13.68Q48.67-10.71 41.70-10.71L41.70-10.71L41.08-10.71L39.42 0L39.42 0Q36.61 2.08 31.62 2.08L31.62 2.08L31.62 2.08Q25.17 2.08 23.09-1.87L23.09-1.87L23.09-1.87Q22.26-3.33 22.26-4.58L22.26-4.58L22.26-4.58Q22.26-6.03 22.46-7.70L22.46-7.70L23.19-11.65L-0.73-14.14L-0.73-27.25L38.17-70.82L38.17-70.72L38.27-70.82L52.73-69.26L52.73-69.26Q47.84-49.30 43.68-26.31L43.68-26.31L46.07-26.31L46.07-26.31Q52.00-26.31 53.87-27.35ZM32.97-53.35L10.40-27.04L26.10-26.52L26.10-26.52Q29.54-41.81 32.97-53.35L32.97-53.35ZM122.20-69.37L122.20-69.37L122.20-69.37Q147.68-69.37 147.68-51.38L147.68-51.38L147.68-51.38Q147.68-41.50 141.34-35.57L141.34-35.57L141.34-35.57Q135.10-29.64 124.18-29.64L124.18-29.64L124.18-29.64Q119.08-29.64 115.13-32.55L115.13-32.55L115.13-32.55Q113.26-33.80 112.01-35.46L112.01-35.46L112.01-35.46Q119.60-35.46 123.60-40.09L123.60-40.09L123.60-40.09Q127.61-44.72 127.61-53.77L127.61-53.77L127.61-53.77Q127.61-62.82 118.66-62.82L118.66-62.82L116.17-62.82L116.17-62.82Q115.54-62.82 115.02-62.71L115.02-62.71L103.06 0L80.50 0L93.29-68.12L93.29-68.12Q104.42-69.16 110.86-69.26L110.86-69.26L110.86-69.26Q117.31-69.37 122.20-69.37ZM173.06-5.72L173.06-5.72L173.06-5.72Q169.83 2.08 159.54 2.08L159.54 2.08L159.54 2.08Q154.34 2.08 151.01-1.56L151.01-1.56L151.01-1.56Q148.30-4.58 148.30-8.01L148.30-8.01L148.30-8.01Q148.30-15.81 151.94-32.86L151.94-32.86L159.54-72.80L180.65-74.88L170.56-22.26L170.56-22.26Q168.79-14.56 168.79-11.86L168.79-11.86L168.79-11.86Q168.79-5.93 173.06-5.72ZM186.42-3.12L186.42-3.12L186.42-3.12Q183.98-5.82 182.88-10.09L182.88-10.09L182.88-10.09Q181.79-14.35 181.79-21.32L181.79-21.32L181.79-21.32Q181.79-28.29 184.18-34.63L184.18-34.63L184.18-34.63Q186.58-40.98 190.94-45.55L190.94-45.55L190.94-45.55Q199.89-55.12 214.66-55.12L214.66-55.12L214.66-55.12Q219.96-55.12 223.81-53.35L223.81-53.35L241.59-55.12L233.90-14.56L233.90-14.56Q233.58-13.31 233.58-11.02L233.58-11.02L233.58-11.02Q233.58-8.74 234.99-7.28L234.99-7.28L234.99-7.28Q236.39-5.82 238.47-5.62L238.47-5.62L238.47-5.62Q237.43-2.08 233.64 0L233.64 0L233.64 0Q229.84 2.08 225.58 2.08L225.58 2.08L225.58 2.08Q221.31 2.08 218.45 0.47L218.45 0.47L218.45 0.47Q215.59-1.14 214.76-3.85L214.76-3.85L214.76-3.85Q213.10-1.25 209.56 0.42L209.56 0.42L209.56 0.42Q206.02 2.08 201.29 2.08L201.29 2.08L201.29 2.08Q196.56 2.08 192.71 0.83L192.71 0.83L192.71 0.83Q188.86-0.42 186.42-3.12ZM208.36-45.34L208.36-45.34L208.36-45.34Q207.17-43.47 206.13-40.30L206.13-40.30L206.13-40.30Q205.09-37.13 203.37-28.65L203.37-28.65L203.37-28.65Q201.66-20.18 201.66-14.14L201.66-14.14L201.66-14.14Q201.66-8.11 202.59-6.34L202.59-6.34L202.59-6.34Q203.53-4.58 205.19-4.58L205.19-4.58L205.19-4.58Q208.52-4.58 210.96-7.75L210.96-7.75L210.96-7.75Q213.41-10.92 214.34-16.54L214.34-16.54L219.86-47.01L219.86-47.01Q217.67-48.88 215.12-48.88L215.12-48.88L215.12-48.88Q212.58-48.88 211.07-48.05L211.07-48.05L211.07-48.05Q209.56-47.22 208.36-45.34ZM280.28-11.75L280.28-11.75L280.28-11.75Q274.87-6.14 264.99-6.14L264.99-6.14L264.99-6.14Q252.62-6.14 250.02-15.18L250.02-15.18L250.02-15.18Q249.18-17.89 249.18-20.90L249.18-20.90L249.18-20.90Q249.18-23.92 249.81-27.04L249.81-27.04L254.70-53.04L275.81-55.12L270.09-24.86L270.09-24.86Q269.88-23.50 269.57-22.05L269.57-22.05L269.57-22.05Q269.26-20.59 269.26-19.08L269.26-19.08L269.26-19.08Q269.26-17.58 269.78-16.59L269.78-16.59L269.78-16.59Q270.30-15.60 271.02-14.98L271.02-14.98L271.02-14.98Q272.27-14.14 274.51-14.14L274.51-14.14L274.51-14.14Q276.74-14.14 278.67-16.85L278.67-16.85L278.67-16.85Q280.59-19.55 281.53-24.23L281.53-24.23L287.25-53.04L307.74-55.12L299.94-14.25L299.94-14.25Q296.09 5.72 288.18 13.62L288.18 13.62L288.18 13.62Q284.13 17.68 278.88 19.29L278.88 19.29L278.88 19.29Q273.62 20.90 266.86 20.90L266.86 20.90L266.86 20.90Q255.94 20.90 249.70 17.47L249.70 17.47L249.70 17.47Q243.46 14.04 243.46 8.32L243.46 8.32L243.46 8.32Q243.46 4.06 246.69 1.61L246.69 1.61L246.69 1.61Q249.91-0.83 254.90-0.83L254.90-0.83L254.90-0.83Q259.27-0.83 262.60 1.04L262.60 1.04L262.60 1.04Q264.58 2.18 265.51 3.64L265.51 3.64L265.51 3.64Q263.12 5.72 263.12 9.15L263.12 9.15L263.12 9.15Q263.12 13.73 267.28 13.73L267.28 13.73L267.28 13.73Q274.14 13.73 278.10-2.08L278.10-2.08L278.10-2.08Q279.24-6.76 280.28-11.75ZM353.60-17.58L353.60-17.58L353.60-17.58Q356.20-15.81 356.20-11.91L356.20-11.91L356.20-11.91Q356.20-8.01 354.22-5.51L354.22-5.51L354.22-5.51Q352.25-3.02 349.02-1.35L349.02-1.35L349.02-1.35Q342.37 2.08 335.19 2.08L335.19 2.08L335.19 2.08Q328.02 2.08 323.80 0.52L323.80 0.52L323.80 0.52Q319.59-1.04 316.78-3.95L316.78-3.95L316.78-3.95Q311.27-9.46 311.27-19.55L311.27-19.55L311.27-19.55Q311.27-35.26 319.80-44.82L319.80-44.82L319.80-44.82Q328.95-55.12 344.86-55.12L344.86-55.12L344.86-55.12Q354.74-55.12 359.63-50.96L359.63-50.96L359.63-50.96Q363.27-47.84 363.27-42.74L363.27-42.74L363.27-42.74Q363.27-24.44 331.66-24.44L331.66-24.44L331.66-24.44Q331.24-21.74 331.24-19.45L331.24-19.45L331.24-19.45Q331.24-14.66 333.37-12.84L333.37-12.84L333.37-12.84Q335.50-11.02 339.46-11.02L339.46-11.02L339.46-11.02Q343.41-11.02 347.62-12.84L347.62-12.84L347.62-12.84Q351.83-14.66 353.60-17.58ZM332.38-28.91L332.38-28.91L332.38-28.91Q339.77-28.91 344.03-33.49L344.03-33.49L344.03-33.49Q348.30-37.86 348.30-44.82L348.30-44.82L348.30-44.82Q348.30-47.22 347.41-48.52L347.41-48.52L347.41-48.52Q346.53-49.82 344.76-49.82L344.76-49.82L344.76-49.82Q342.99-49.82 341.48-49.14L341.48-49.14L341.48-49.14Q339.98-48.46 338.42-46.18L338.42-46.18L338.42-46.18Q334.57-40.98 332.38-28.91ZM399.36-29.22L399.36-29.22L399.36-29.22Q403.10-35.88 403.10-42.64L403.10-42.64L403.10-42.64Q403.10-47.11 399.88-47.11L399.88-47.11L399.88-47.11Q397.38-47.11 394.78-42.85L394.78-42.85L394.78-42.85Q392.08-38.58 391.25-33.07L391.25-33.07L385.84 0L364.31 2.08L374.92-53.04L392.08-55.12L390.21-44.62L390.21-44.62Q395.30-55.12 406.74-55.12L406.74-55.12L406.74-55.12Q412.78-55.12 416.05-52.00L416.05-52.00L416.05-52.00Q419.33-48.88 419.33-42.48L419.33-42.48L419.33-42.48Q419.33-36.09 415.12-32.03L415.12-32.03L415.12-32.03Q410.90-27.98 403.73-27.98L403.73-27.98L403.73-27.98Q400.61-27.98 399.36-29.22ZM452.09-36.50L452.09-36.50L452.09-36.50Q453.54-40.35 453.54-43.68L453.54-43.68L453.54-43.68Q453.54-49.82 448.55-49.82L448.55-49.82L448.55-49.82Q445.95-49.82 443.82-47.48L443.82-47.48L443.82-47.48Q441.69-45.14 441.69-42.22L441.69-42.22L441.69-42.22Q441.69-40.14 443.35-38.48L443.35-38.48L443.35-38.48Q445.74-36.19 451.88-32.45L451.88-32.45L451.88-32.45Q458.02-28.70 460.36-25.64L460.36-25.64L460.36-25.64Q462.70-22.57 462.70-18.36L462.70-18.36L462.70-18.36Q462.70-14.14 460.67-10.30L460.67-10.30L460.67-10.30Q458.64-6.45 455.00-3.74L455.00-3.74L455.00-3.74Q447.20 2.08 434.72 2.08L434.72 2.08L434.72 2.08Q427.96 2.08 422.76-1.46L422.76-1.46L422.76-1.46Q417.56-4.89 417.56-8.94L417.56-8.94L417.56-8.94Q417.56-13.00 420.52-15.39L420.52-15.39L420.52-15.39Q423.49-17.78 427.86-17.78L427.86-17.78L427.86-17.78Q432.22-17.78 434.93-16.12L434.93-16.12L434.93-16.12Q433.58-12.69 433.58-10.40L433.58-10.40L433.58-10.40Q433.58-3.54 439.40-3.54L439.40-3.54L439.40-3.54Q441.90-3.54 443.56-5.10L443.56-5.10L443.56-5.10Q445.22-6.66 445.22-9.36L445.22-9.36L445.22-9.36Q445.22-14.66 436.28-20.28L436.28-20.28L436.28-20.28Q429.00-25.06 427.34-26.94L427.34-26.94L427.34-26.94Q424.53-30.26 424.53-34.42L424.53-34.42L424.53-34.42Q424.53-38.58 426.50-42.54L426.50-42.54L426.50-42.54Q428.48-46.49 432.12-49.30L432.12-49.30L432.12-49.30Q439.71-55.12 452.92-55.12L452.92-55.12L452.92-55.12Q459.68-55.12 463.68-52.42L463.68-52.42L463.68-52.42Q467.69-49.71 467.69-45.14L467.69-45.14L467.69-45.14Q467.69-40.56 464.93-37.96L464.93-37.96L464.93-37.96Q462.18-35.36 457.18-35.36L457.18-35.36L457.18-35.36Q453.75-35.36 452.09-36.50Z" fill="url(#editing-gradient-gradient)"></path></g></g><style>text {
  font-size: 64px;
  font-family: Arial Black;
  dominant-baseline: central;
  text-anchor: middle;
}</style></svg>