<?xml version="1.0" encoding="utf-8"?>
<!DOCTYPE svg PUBLIC "-//W3C//DTD SVG 20010904//EN" "http://www.w3.org/TR/2001/REC-SVG-20010904/DTD/svg10.dtd">
<svg version="1.0" xmlns="http://www.w3.org/2000/svg" width="1104px" height="359px" viewBox="0 0 1104 359" preserveAspectRatio="xMidYMid meet">
 <g fill="#ffffff">
  <path d="M9.5 358.2 c-7.1 -0.8 -8.7 -3.2 -3.3 -5.1 11.9 -4.4 11.2 -1.2 11.6 -54.6 l0.3 -45.1 -4.6 -3.3 c-2.5 -1.8 -5.8 -3.6 -7.2 -4 -1.5 -0.4 -2.8 -1.2 -3 -1.8 -0.5 -1.4 10.1 -2.3 27.8 -2.3 l14.5 0 26.5 33.1 26.4 33.1 0.8 -6.9 c1.1 -9.2 0.3 -44.1 -1.1 -47.5 -1.7 -4.1 -5 -6.5 -10.4 -7.8 -3.7 -0.9 -4.7 -1.5 -3.8 -2.4 1.4 -1.4 34.5 -1.4 37.9 0 2.2 1 1.9 1.2 -3.9 3.3 -9.7 3.5 -9.2 1.1 -10.1 57.2 -0.6 45.7 -1.1 53.9 -2.9 53.9 -1.9 0 -32.2 -35.3 -68.5 -79.7 -3.2 -4 -6.4 -7.3 -7.1 -7.3 -1.8 0 -2.8 21.7 -2.1 48 0.6 25.1 1.6 30 6.5 31.8 1.5 0.5 4.5 1.6 6.6 2.4 4.3 1.4 5.6 3.2 3.1 4.2 -2.4 0.9 -27.3 1.5 -34 0.8z"/>
  <path d="M141.5 358 c-7.1 -0.4 -13.1 -0.8 -13.2 -0.9 -0.2 0 -0.3 -0.8 -0.3 -1.6 0 -0.8 1.2 -1.7 2.8 -2 8.3 -1.6 10.7 -3 11.9 -6.5 1.6 -4.6 1.8 -88.7 0.2 -94.3 -1.1 -4.2 -4.1 -6.1 -11.4 -7.2 -3.5 -0.6 -3.7 -0.8 -2 -1.8 1.4 -0.7 17.3 -1.2 49.8 -1.5 l47.7 -0.4 0 15 c0 21.6 -2.1 25.3 -6.9 12.1 -4.3 -11.6 -12.3 -17.2 -27.2 -18.9 -4.6 -0.5 -10.8 -1 -13.6 -1 l-5.3 0 0 22 0 22 3.6 0 c8.4 0 14.5 -5.8 17.5 -16.7 3.7 -13.2 5.4 -11.1 6.4 7.6 0.7 13 0 40.7 -1.2 43.7 -1.4 3.6 -3 1.1 -5.8 -8.9 -2.5 -9.2 -12.6 -18.4 -17.9 -16.4 -0.8 0.3 -1.8 2.7 -2.2 5.3 -1 6.7 0.2 35.7 1.5 38.2 1.5 2.8 6.1 3.6 18.5 3 8 -0.4 11.3 -1 15.1 -2.8 6.4 -3.1 14.6 -11.5 18 -18.4 3.1 -6.4 5.1 -8.4 6.7 -6.8 1 1 -1.4 19.5 -4.4 33.5 l-1 4.7 -37.1 -0.2 c-20.5 -0.1 -43 -0.5 -50.2 -0.8z"/>
  <path d="M574.5 358 c-7.1 -0.4 -13.1 -0.8 -13.2 -0.9 -0.2 0 -0.3 -0.8 -0.3 -1.6 0 -0.8 1.2 -1.7 2.8 -2 7.4 -1.5 10.3 -2.8 11.4 -4.8 1 -1.7 1.3 -12.9 1.3 -48.2 0 -25.3 -0.3 -47.3 -0.8 -48.8 -0.8 -3 -4.7 -5.2 -11.2 -6.2 -3.5 -0.6 -3.7 -0.8 -2 -1.8 1.4 -0.7 17.3 -1.2 49.8 -1.5 l47.7 -0.4 0 15 c0 8.3 -0.5 16.3 -1 17.8 -1.1 2.7 -1.1 2.7 -2.9 0.8 -1 -1 -2.3 -3.7 -2.9 -5.9 -1.7 -5.9 -4.6 -10 -9.3 -13.5 -5.8 -4.2 -12.1 -5.8 -25.5 -6.6 l-11.4 -0.7 0 22.2 0 22.1 3.6 0 c8.3 0 14.9 -6.5 17.8 -17.5 1.5 -6 3 -8.4 4.3 -7.1 2 2 2.1 56.8 0.1 59.8 -1.3 2 -3.2 -1.1 -4.7 -7.7 -2.8 -12.3 -17.2 -23.7 -20.1 -15.9 -1.2 3 -1.2 29.8 -0.1 36.7 0.4 2.6 1.3 5.3 2 6 0.8 0.8 5.5 1.2 14.4 1.2 11.7 0 13.7 -0.3 17.7 -2.2 6.2 -3.1 15.5 -12.6 18.5 -18.9 2.8 -5.9 5.1 -8.2 6.6 -6.7 1 1 -0.5 12.7 -3.8 30.1 l-1.6 8.2 -37.1 -0.2 c-20.4 -0.1 -42.9 -0.5 -50.1 -0.8z"/>
  <path d="M914.4 357.9 c-15 -1.4 -28.9 -8 -37.3 -17.5 -5.4 -6.1 -11.7 -18.7 -13 -25.8 -2.5 -13.5 -0.3 -29.7 5.5 -41.6 6.1 -12.4 18.8 -23.3 34.2 -29.6 12 -4.8 31.6 -4.1 49.8 1.7 l9.3 3 4 -4.3 4 -4.3 1 2.8 c1.7 4.3 1.4 34.9 -0.2 37.2 -1.3 1.7 -1.5 1.7 -3 -0.6 -1 -1.3 -1.7 -3.1 -1.7 -4 0 -2.3 -7.1 -12.8 -11.6 -17.1 -6.6 -6.2 -12.4 -8.3 -23.4 -8.3 -11.2 0 -16.2 1.9 -23.4 9 -9.4 9 -13 20.6 -13 41 0 20.5 4.2 33.5 13.6 42.1 6.3 5.8 12.7 7.7 24.2 7.2 11.6 -0.5 19.3 -3.9 29 -12.7 3.8 -3.3 7.2 -6.1 7.7 -6.1 0.5 0 0.9 1.9 0.9 4.3 0 5.6 -3.3 10.4 -10.6 15.2 -7.9 5.3 -14 7.4 -24.7 8.5 -10.1 1.1 -9.7 1.1 -21.3 -0.1z"/>
  <path d="M988.3 358.3 c-3.4 -0.6 -3 -4.1 0.5 -4.8 5.8 -1.2 7.6 -2.1 9.6 -4.8 2.1 -2.8 2.1 -3.6 2.1 -49.7 0 -43.9 -0.1 -46.9 -1.8 -48.8 -1.9 -2.1 -5.1 -3.6 -10.1 -4.7 -1.8 -0.4 -2.5 -1 -1.9 -1.6 1.5 -1.5 42.9 -2.2 61.1 -1.1 16 1 16.6 1.1 24 4.8 10.5 5.1 20.5 15.1 25.6 25.4 3.5 7.2 3.7 8.2 4.3 20 0.7 16.7 -0.6 26 -4.8 34.7 -7 14 -22.2 24.8 -39.6 27.8 -4.5 0.8 -20.2 1.9 -35 2.5 -27.5 1 -30.2 1 -34 0.3z m60.8 -10.8 c13.2 -4.5 19.3 -17 20.5 -41.5 1.1 -22.4 -2.1 -36.7 -10.5 -46.3 -4.5 -5.1 -14 -9.5 -22.3 -10.3 l-6.8 -0.7 0.1 38.4 c0 46 0.7 58.6 3.4 60.5 2.5 1.8 10.1 1.8 15.6 -0.1z"/>
  <path d="M290.1 356.5 c-8.7 -2.5 -15.1 -6.5 -23.2 -14.5 -9 -8.9 -14.1 -18.3 -16.5 -30.5 -1.7 -8.8 -1.3 -20.5 1 -29 4.9 -18.3 23.6 -36.6 41.4 -40.4 7.5 -1.6 32.5 -1.4 38.8 0.3 8.5 2.2 17.2 7.6 24.9 15.2 12.7 12.6 17.2 25.4 16.3 45.8 -0.8 15.8 -5.6 26.8 -16.8 38.5 -12.4 12.9 -18.7 15.1 -43.5 15.7 -13.1 0.3 -18.2 0 -22.4 -1.1z m31.4 -7.4 c7.4 -3.3 15.1 -14.1 17.5 -24.3 1.6 -7.1 1.3 -45.4 -0.5 -52.2 -2.7 -10.4 -10 -19.8 -17.7 -23.1 -4.7 -1.9 -13.8 -2 -18.3 -0.1 -5.9 2.5 -11.9 9 -15.6 16.8 l-3.4 7.3 0 26 0 26 3.1 6.5 c4 8.6 8.7 13.8 14.9 16.6 6.2 2.9 14.3 3.1 20 0.5z"/>
  <path d="M474.3 357 c-13.2 -2.8 -28.1 -13.8 -36.3 -26.7 -10.3 -16.1 -11.2 -36.8 -2.5 -55.1 2.9 -6.2 5.4 -9.4 12.8 -16.7 15.8 -15.5 22.8 -17.9 49.2 -17.3 15.9 0.4 17.6 0.7 26.9 3.7 l9.8 3.3 3 -3.6 c3.2 -3.9 5.2 -4.5 6.2 -2 1 2.6 0.7 33.1 -0.4 35.9 -0.9 2.3 -1.3 2.5 -2.6 1.4 -0.9 -0.7 -3.1 -4.2 -5 -7.8 -1.8 -3.6 -4.6 -8 -6.1 -9.7 -15 -17 -41.3 -19.2 -54.6 -4.5 -8.5 9.4 -11.9 21.5 -11.9 42.1 0 25.9 6.1 40.7 19.6 47.8 4.6 2.4 6.2 2.7 15.6 2.7 5.8 0 12.3 -0.4 14.4 -0.8 l3.9 -0.8 -0.6 -12.7 c-0.4 -7 -0.9 -14.2 -1.3 -15.9 -0.9 -4.8 -4.6 -8.3 -8.6 -8.3 -4.5 0 -7.1 -1.7 -3.7 -2.4 9 -1.9 54.9 -1.4 54.9 0.5 0 0.5 -2.7 2.2 -6 3.9 l-6 3 -0.1 11.8 c0 6.4 -0.4 13.9 -0.7 16.7 l-0.7 4.9 -6.5 2.2 c-3.6 1.3 -9.4 2.8 -13 3.4 -8.3 1.5 -44.2 2.2 -49.7 1z"/>
  <path d="M723.1 356.4 c-8.2 -2.2 -14.8 -6.2 -22.9 -13.8 -14.9 -14.2 -21 -34.9 -16.6 -56.4 1.9 -9.5 5.2 -16.3 11.3 -23.6 9 -10.9 20 -18.2 30.9 -20.5 6.9 -1.4 30.6 -1.4 37.4 0 14 3 30.4 16.3 37.3 30.4 7.5 15.2 7.2 39.9 -0.7 54.7 -4.2 7.9 -17.1 21.6 -23.8 25.2 -2.8 1.5 -8.6 3.4 -12.8 4.2 -10.2 1.8 -33.1 1.7 -40.1 -0.2z m31.4 -7.3 c5.4 -2.4 11 -8.9 14.9 -17 l3.1 -6.6 0 -26 0 -26 -3.1 -6.6 c-3.9 -8.1 -9.1 -14.1 -14.8 -16.8 -5.4 -2.7 -14.5 -2.8 -20.1 -0.2 -5.5 2.4 -12.9 10.9 -15.7 17.9 -2.2 5.4 -2.3 6.9 -2.3 31.8 l0 26 3.7 7.5 c6.1 12.3 13.5 17.8 24.3 17.8 3.7 0 7.5 -0.6 10 -1.8z"/>
  <path d="M395 312.3 c-4.7 -2.5 -7.4 -7.4 -7.3 -13.6 0.1 -5.8 2.3 -9.4 7.4 -11.9 12.8 -6.6 26.6 6.5 20.1 19.1 -2.4 4.8 -5.9 7 -11.7 7.7 -3.7 0.4 -5.9 0 -8.5 -1.3z"/>
  <path d="M428.8 184.3 l-32.6 -31.8 -0.1 -48.2 -0.1 -48.3 24.3 -23.8 c13.3 -13.1 26.3 -25.8 28.9 -28.1 l4.7 -4.3 31.9 31.6 c17.5 17.4 32.3 31.6 32.8 31.6 0.5 0 11.5 -10.6 24.4 -23.5 l23.5 -23.5 43 0 43 0 28.3 27.1 28.2 27.1 0 42.8 0 42.8 -17.7 16.9 c-9.8 9.3 -22.5 21.3 -28.3 26.6 l-10.5 9.7 -22.1 -22.1 -22.1 -22.1 -24.9 25.6 -24.9 25.6 -48.5 0 -48.6 0 -32.6 -31.7z m148.1 0.2 c13.2 -13.5 24.1 -24.8 24.1 -25.3 0 -0.4 -9 -9.7 -19.9 -20.6 l-20 -20 -25.6 -0.4 -25.6 -0.5 0.1 -24.4 0.1 -24.4 -9 -9.7 c-4.9 -5.3 -17.5 -18.2 -28 -28.6 l-19 -18.9 -25 24.3 -25.1 24.3 0 43.6 0 43.6 31.3 30.7 31.2 30.7 43.1 0 43.1 0.1 24.2 -24.5z m78.6 -26.5 c4.3 -0.6 8.2 -1.5 8.6 -2.1 0.4 -0.6 1.2 -4.3 1.8 -8.3 0.6 -3.9 1.5 -7.7 1.9 -8.3 0.5 -0.7 3.6 -1.6 7 -1.9 3.4 -0.4 6.2 -1 6.2 -1.3 0 -0.3 0.4 -3.2 0.9 -6.3 0.9 -4.9 0.6 -7.4 -2.3 -19.5 -2.6 -10.7 -3.7 -13.9 -5 -14.1 -1.9 -0.4 -20.7 3.6 -22.6 4.8 -0.9 0.6 -1 2 -0.1 5.9 1.4 6.4 1.4 11.5 0.1 16.1 -0.9 3.3 -1.7 3.9 -11.1 8 l-10 4.4 0.6 3.6 c1.4 8.2 3.6 12.9 8.1 17 2.8 2.6 5.1 3.9 6.2 3.6 0.9 -0.3 5.3 -1 9.7 -1.6z m-60.7 -61.5 c4.6 -1.4 5.2 -1.9 5.6 -4.8 0.3 -1.7 1 -5.6 1.5 -8.5 1 -6.1 0.4 -7 -7.2 -11.1 -4.1 -2.2 -5.1 -2.4 -10.4 -1.5 l-5.8 0.9 -1.3 8.5 -1.3 8.5 5.2 4.8 c2.9 2.6 6 4.7 6.9 4.7 0.9 0 4 -0.7 6.8 -1.5z m31.8 -34.9 c1.9 -1.9 3.4 -4.1 3.4 -4.9 0 -2.5 -4.5 -8.1 -7.3 -9.1 -3.8 -1.4 -5.7 0 -7.5 5.3 -1.7 5.2 -0.3 9.5 3.7 11 3.9 1.4 4 1.4 7.7 -2.3z"/>
  <path d="M482.5 181.1 c-4.4 -1.1 -6.6 -2.5 -11 -7.2 -2.6 -2.7 -3.3 -3.9 -2 -3.4 8.7 3.4 10.3 3.7 17.5 3.2 9.6 -0.7 16.6 -2.9 22.7 -7 6.6 -4.6 8.3 -7.4 13.3 -22.6 5.3 -16.1 6.6 -17.6 7.5 -8.8 2.2 20.1 -9.4 42.6 -23.4 45.6 -5.7 1.2 -19.8 1.3 -24.6 0.2z"/>
  <path d="M437.6 117.1 c-1.6 -1.1 -3.5 -3 -4.2 -4.2 -2.6 -5 6.1 -10.8 12.2 -8 1.3 0.6 3.3 2.5 4.4 4.3 1.8 3 1.8 3.3 0.2 5.1 -1.9 2.2 -6.5 4.7 -8.4 4.7 -0.7 0 -2.6 -0.9 -4.2 -1.9z"/>
  <path d="M474.1 95.1 c-1.5 -1.6 -3.5 -4.7 -4.5 -6.9 -1.8 -4 -1.8 -4.1 0.4 -7.7 3.4 -5.5 4.8 -6.5 9.4 -6.5 5.1 0 6.3 0.9 10.9 7.9 l3.6 5.4 -3.6 5.3 c-3.5 5.3 -3.7 5.4 -8.5 5.4 -4.2 0 -5.4 -0.5 -7.7 -2.9z"/>
 </g>
</svg>