<?xml version="1.0" encoding="UTF-8"?>
<svg xmlns="http://www.w3.org/2000/svg" id="a" viewBox="0 0 522.3 135.45">
   <g>
      <path fill="#b2832c" d="M108.23,14.54c18.61,10.44,31.39,32.91,31.39,54.14,0,32.67-29.33,59.14-65.51,59.14S8.6,101.35,8.6,68.68c0-20.88,11.02-44.2,29.72-53.62,25.2-12.7,59.89-6.13,69.91-.52Z" />
      <path fill="#ecb21f" d="M103.72,24.53c11.09,4.38,20.71,15.03,28,24.27,6.89,8.73,2.72,26.88-1.87,36.03-5.47,10.92-15.47,18.42-26.64,22.88-17.48,6.97-33.74,6.16-50.95-.91-10.41-4.27-18.7-9.3-25.44-18.64-7.48-10.38-7.89-23.61-3.37-35.29,4.89-12.64,13-20.84,25.62-25.46,11.67-4.27,24.93-7.69,37.44-6.94,6.04,.36,11.73,1.9,17.21,4.06Z" />
      <path fill="#f3be18" d="M105.08,24.07c8.12,3.2,12.43,8.76,18.12,14.95-11.66-.53-26.2,12.36-34.18,19.54-9.46,8.52-18.21,18.75-28.55,26.15-7.57,5.41-19.39,7.82-27.76,3.42-11.38-5.99-11.89-25.41-7.9-35.73,4.89-12.64,13-20.84,25.61-25.47,11.67-4.27,24.94-7.68,37.44-6.94,6.04,.36,11.73,1.91,17.21,4.07Z" />
      <path fill="#ffefb2" d="M90.35,22.48c-1.42,.13-1.76,.17-1.85,.2-.15,.06-.47,2.81-.59,5.03l-.05,.9-.77,.19c-.42,.11-1.01,.29-1.3,.41-.74,.3-2.36,1.08-2.78,1.34-.2,.12-.37,.22-.39,.22-.02,0-1.06-.84-2.3-1.86s-2.31-1.88-2.35-1.9c-.17-.07-1.6,1.15-2.67,2.26-1.03,1.06-2.21,2.53-2.12,2.64,.3,.4,1.45,1.81,2.43,2.99,.66,.79,1.23,1.48,1.25,1.53,.03,.06-.06,.27-.24,.55-.47,.74-1.02,1.9-1.26,2.65-.13,.39-.3,.92-.39,1.2-.09,.27-.17,.55-.17,.6,0,.08-.13,.11-.5,.15-2.73,.25-5.36,.55-5.43,.63-.22,.21-.36,3.02-.24,4.54,.08,1.06,.25,2.21,.32,2.28,.03,.04,2.09,.24,5.3,.54l.54,.05,.04,.29c.03,.16,.11,.43,.18,.61s.24,.68,.38,1.13c.27,.85,.84,2.05,1.31,2.75,.15,.23,.27,.46,.25,.51-.02,.05-.58,.74-1.25,1.54-1.85,2.21-2.44,2.96-2.38,3.05,.24,.42,1.37,1.74,2.16,2.54,1.04,1.05,2.67,2.41,2.75,2.3,.03-.04,.69-.6,1.48-1.25s1.75-1.45,2.14-1.78c.39-.34,.75-.64,.82-.69,.1-.08,.23-.03,.91,.36,.94,.53,2.09,1.01,3.21,1.31,.44,.12,.85,.25,.89,.27,.06,.04,.16,.76,.29,2.11,.21,2.05,.4,3.67,.45,3.82,.06,.15,2.17,.26,3.98,.22,1.44-.04,2.85-.17,2.96-.27,.01-.02,.14-1.26,.27-2.76,.14-1.5,.27-2.83,.29-2.95,.04-.27,.03-.26,1.24-.62,1.02-.3,2.37-.9,3.19-1.41,.33-.21,.63-.36,.67-.34,.04,.01,.47,.36,.95,.78,1.62,1.4,3.65,2.98,3.76,2.95,.19-.08,.97-.67,1.4-1.07,.9-.84,3.38-3.65,3.38-3.83,0-.02-.8-.99-1.76-2.15-.97-1.16-1.84-2.19-1.93-2.3l-.15-.19,.41-.8c.55-1.06,1.09-2.41,1.32-3.3l.18-.73,1.3-.12c.71-.06,2.06-.19,2.99-.27l1.69-.16,.04-.18c.09-.44,.18-1.53,.22-2.66,.06-1.66-.12-4.07-.31-4.19-.05-.03-1.38-.17-2.97-.32s-2.91-.28-2.94-.29-.08-.21-.13-.43c-.19-.96-.81-2.55-1.44-3.73l-.46-.85,.27-.32c.15-.18,.97-1.2,1.85-2.26,.87-1.06,1.6-1.97,1.63-2.02,.06-.08-.5-.79-1.42-1.82-1.02-1.13-3.37-3.16-3.53-3.04-.58,.44-2.67,2.14-3.41,2.76-.53,.43-.99,.83-1.06,.88-.08,.07-.38-.05-1.6-.67-1.07-.53-1.73-.81-2.28-.97-.42-.13-.84-.22-.92-.22-.18,0-.18,.02-.34-1.79-.12-1.34-.45-4.26-.48-4.28-.06-.06-.88-.16-1.76-.22-.91-.07-2.6-.08-3.18-.03Zm3.19,14.66c1.52,.25,2.99,1.06,4.27,2.33,1.25,1.25,2.02,2.62,2.35,4.21,.73,3.51-.69,6.99-3.64,8.93-1.34,.89-2.65,1.3-4.31,1.37-1.55,.07-2.72-.17-4.05-.82-1.67-.82-2.93-2.05-3.82-3.74-.67-1.28-.94-2.4-.93-4,0-1.97,.54-3.55,1.71-5.06,1.48-1.93,3.5-3.12,5.57-3.3,.78-.06,2.3-.03,2.87,.07Z" />
      <path fill="#ffefb2" d="M90.35,38.38c-2.56,.56-4.64,2.51-5.44,5.09-.18,.58-.19,.71-.19,1.95,0,1.45,.03,1.67,.46,2.77,.46,1.18,1.65,2.65,2.79,3.42,.63,.43,1.5,.82,2.22,1,.9,.22,2.6,.22,3.43,0,.98-.27,1.69-.6,2.48-1.19,2.24-1.67,3.31-4.08,3.01-6.79-.19-1.75-.87-3.14-2.11-4.32-.94-.9-1.92-1.47-3.14-1.83-.83-.25-2.6-.3-3.51-.1Zm2.67,1.79c1.6,.34,3.08,1.46,3.76,2.85,.12,.25,.29,.71,.36,1.03,.13,.51,.15,.74,.12,1.65-.03,.92-.06,1.13-.24,1.65-.53,1.59-2.09,3-3.82,3.47-.53,.15-2.03,.17-2.51,.04-1.03-.28-1.87-.77-2.62-1.52-.32-.31-.67-.74-.81-.96-1.55-2.61-.74-6.03,1.81-7.55,.52-.3,1.3-.61,1.82-.69,.53-.09,1.62-.07,2.11,.04Z" />
      <path fill="#ffefb2" d="M63.86,52.9c-.53,1.34-1.13,3-1.76,4.76l-.69,1.95h-.85c-1.62,0-4.08,.33-5.52,.74-.49,.14-.9,.25-.92,.23,0-.01-.25-.36-.54-.76-.98-1.4-3.99-5.53-4.03-5.53-.07,0-1.27,.48-1.53,.62-.15,.08-.52,.25-.81,.39-.29,.13-.84,.43-1.23,.66-.39,.22-1.04,.61-1.45,.85-.74,.43-1.75,1.16-2.39,1.72l-.32,.29,.84,1.81c.47,1,1.2,2.57,1.62,3.49l.78,1.67-.53,.54c-1.37,1.4-3.03,3.58-3.59,4.73-.11,.22-.22,.4-.26,.4-.03,0-1.02-.17-2.21-.38-2.3-.41-5.41-.9-5.44-.87-.06,.06-.72,1.74-.98,2.47-.36,1.02-.95,3.91-1.19,5.88l-.04,.35,3.56,1.37,3.56,1.37v.67c.04,1.2,.18,2.67,.32,3.42,.08,.41,.19,.99,.25,1.28,.06,.3,.18,.81,.27,1.14,.1,.33,.18,.64,.18,.7,0,.05-.65,.56-1.45,1.13-.81,.57-2.19,1.57-3.09,2.23-1.46,1.06-1.62,1.21-1.59,1.35,.15,.62,1.51,3.25,2.42,4.7,.52,.81,1.56,2.31,1.85,2.65l.21,.24,1.23-.57c1.2-.57,5.15-2.37,5.57-2.56l.21-.1,.95,.88c1.18,1.11,1.77,1.55,3.37,2.53,.97,.59,1.27,.81,1.26,.91,0,.07-.15,.99-.33,2.05-.31,1.86-.81,5.24-.81,5.41,0,.05,.11,.13,.23,.18,1.58,.63,2.98,1.06,5.01,1.54,1.35,.32,3.31,.66,3.38,.58,.13-.14,1.83-4.61,2.49-6.5l.27-.79h1.06c1.83,0,3.13-.18,4.98-.71,.85-.24,1.02-.27,1.1-.19,.05,.06,1.07,1.48,2.28,3.18s2.2,3.09,2.21,3.1c.02,.03,.64-.26,2.53-1.19,.78-.39,1.7-.91,2.42-1.38,1.02-.67,2.32-1.63,2.67-1.97,.13-.11,.11-.18-.57-1.69-.39-.86-1.11-2.45-1.61-3.53l-.91-1.95,.82-.88c1.12-1.19,2.14-2.58,2.84-3.86,.18-.34,.35-.62,.38-.64s.67,.08,1.41,.2c3.91,.66,6.18,1.02,6.26,.99,.15-.06,1.25-3.17,1.55-4.39,.06-.25,.14-.53,.18-.61,.06-.15,.51-2.67,.59-3.33l.04-.33-.34-.15c-.43-.2-3.36-1.3-5.35-2.03l-1.6-.58v-1.09c0-1.25-.07-1.97-.29-3.14-.13-.69-.47-2.2-.6-2.63-.03-.08,.31-.36,1.32-1.08,1.52-1.09,4.87-3.58,4.92-3.68,.05-.08-.43-1.2-1-2.34-.81-1.63-1.86-3.28-2.97-4.67l-.54-.68-.93,.41c-1.29,.57-3.36,1.52-4.81,2.22l-1.21,.59-.94-.89c-.99-.94-2.2-1.88-3-2.35-.42-.25-1.28-.81-1.46-.96-.03-.03,.08-.86,.23-1.86,.78-5,.92-5.85,.9-5.87-.01,0-.51-.2-1.11-.43-1.26-.49-2.79-1-3.02-1-.08,0-.33-.06-.55-.13-.56-.2-3.42-.77-3.82-.78-.11,0-.18,.11-.34,.5Zm-1.27,18.36c1.93,.34,3.95,1.29,5.4,2.54,1.72,1.48,3.22,4.19,3.63,6.55,.15,.89,.14,2.43-.03,3.42-.31,1.79-1.08,3.68-2,4.89-1.62,2.15-4.42,3.84-7.14,4.31-.8,.13-2.34,.13-3.18,0-1.6-.26-3.4-.91-4.52-1.63-2.49-1.61-4.34-4.38-4.91-7.36-.17-.89-.17-2.51,0-3.47,.63-3.56,2.3-6.03,5.33-7.88,.8-.49,2.05-.99,3.01-1.23,1.35-.32,3.07-.37,4.41-.13Z" />
      <path fill="#ffefb2" d="M60.07,72.67c-1.51,.18-2.36,.43-3.61,1.08-2.45,1.27-3.91,3.11-4.66,5.87-.35,1.29-.41,1.69-.41,2.74,0,.99,.11,1.76,.39,2.6,.17,.52,.76,1.81,.83,1.81,.02,0,.24,.29,.47,.64,1.04,1.56,2.49,2.72,4.26,3.42,3.54,1.39,7.26,.66,10.06-1.96,1.26-1.18,2.3-3.05,2.65-4.77,.48-2.4,.08-4.65-1.21-6.82-1.39-2.35-3.21-3.67-6.01-4.36-.94-.23-2.04-.33-2.77-.24Zm2.42,2.62c2.18,.55,3.72,1.83,4.77,3.96,.48,.99,.58,1.5,.58,2.86s-.11,1.89-.63,2.97c-.39,.81-.78,1.37-1.37,1.95-2.03,2-4.39,2.58-7.17,1.76-1.81-.53-3.23-1.77-4.17-3.63s-.97-4.01-.23-5.71c.74-1.65,2.02-2.97,3.68-3.75,1.52-.71,2.86-.83,4.54-.41Z" />
      <path fill="#d49429" fill-opacity="0.71" d="M103.72,25.44c9.52,3.75,16.56,11.19,23.35,18.55,6.24,6.77,8.22,10.53,10.08,19.73-5.36-6.1-8.9-13.41-15.67-18.27-6.96-4.99-15.83-7.58-24.21-8.81-16.54-2.43-35.13,.11-49.54,8.96-12.5,7.68-23.21,19.52-23.66,34.95-.17,5.74,2.21,11.2,4.52,16.37,3.24,7.21,9.32,11.28,13.19,17.67-19.23-.1-30.21-29.65-30.21-45.06,0-20.58,20.07-34.83,37.49-41.2,11.67-4.27,24.93-7.69,37.44-6.94,6.04,.36,11.73,1.9,17.21,4.07Z" />
      <path fill="#f7c911" fill-opacity="0.8" d="M126.28,53.57c6.27,4.97,10.57,13.88,8.88,20.61-3.74,14.89-12.14,30.82-28.07,35.19-9.64,2.64-18.07,1.13-27.09-3.36-4.25-2.11-14.02-6.92-14.56-12.45-.92-9.4,18.88-18.18,24.98-22.18,4.46-2.92,9.23-6.6,12.82-10.54,2.24-2.46,3.71-6.58,6.33-8.56,5.47-4.13,11.72-2.67,16.72,1.28Z" />
      <path fill="#a36828" d="M15.4,48.11c-2.67,6.49-3.08,13.5-2.62,20.45,7.17-14.21,13.46-27.18,28.45-34.91,12.12-6.25,24.95-6.36,38.33-6.36,10.62,0,19.78,1.44,29.56,5.46,3.74,1.54,7.51,2.67,10.81,5.07,3.8,2.77,6.65,6.81,10.73,9.17-2.74-5.69-7.06-10.37-10.43-15.67-2.1-3.3-3.61-7.1-6.07-10.16-7.72-9.58-19.8-6.46-30.33-6.02-14.91,.61-31.04-3.24-44.5,4.87-10.81,6.51-19.13,16.45-23.92,28.1Z" />
      <path fill="#844b1f" d="M95.89,9.96c4.78,1.43,9.29,3.51,13.11,6.38,4.4,3.31,7.67,7.06,10.5,11.76-6.5-6.92-19.15-8.41-28-9.82-7.15-1.14-14.39-.76-21.61-.08-5.93,.56-11.75,.48-17.62,1.57-4.82,.89-9.28,2.92-14.03,3.99-1.93,.44-8.32,3.35-9.86,1.97,1.76-3.13,6.32-6.22,9.3-8.24,3.35-2.27,6.86-4.1,10.53-5.82,6.77-3.17,15.59-3.62,22.95-4.14,7.84-.55,16.68,.02,24.72,2.42Z" />
      <path fill="#fdebae" d="M135.92,57.02c1.61,6.4,2.97,16.61-1.42,22.37,2.34-7.63-.93-18.59-2.99-26.03-1.71-6.18-5.55-11.55-7.24-17.56,5.89,3.99,9.98,14.56,11.65,21.21Z" />
      <path fill="#ddd2d3" fill-opacity="0.5" d="M55.33,20.31c2.79-.45,6.44-.42,8.68,1.59,2.36,2.14,1.3,5.53,3.49,7.57,5.61,5.22,11.37-3.75,7.44-8.82-4.58-5.92-12.73-5.94-19.45-4.74-11.74,2.09-23.06,7.6-31.14,16.49-9.11,10-11.64,24.4-10.35,37.59,.35,3.64,.94,9.05,3.7,11.83,2.17,2.19,5.56,1.74,8.5,1.58,2.45-.14,6.57,.55,8.8-.61,4-2.07,.93-11.2,.24-14.85-1.98-10.46-3.37-22.75-.29-33.15,2.57-8.68,12.2-13.17,20.39-14.48Z" />
      <path fill="#e7e9dc" fill-opacity="0.66" d="M28.32,70.42c-1.44,2.96-5.43,7.46-9.08,6.36-3.09-.92-3.9-4.57-4.19-7.28-.71-6.6,.4-13.96,1.97-20.4,1.98-8.16,6.76-16.55,12.88-22.42,3.19-3.07,6.72-4.66,10.74-6.44,7.15-3.16,16.43-4.67,24.19-3.29,3.07,.54,7.25,1.64,8.28,5.09,1.23,4.11-2.26,4.91-5.44,3.02-2.6-1.55-4.07-4.95-6.91-6.22-2.9-1.29-7.22-.76-10.28-.18-9.38,1.76-20.42,8.48-23.15,18.03-2.36,8.27,.03,17.23,1.67,25.4,.64,3.18,.74,5.4-.68,8.32Z" />
      <path fill="#fdebae" d="M21.05,50.32c4.07,2.63,2.43,15.51-1.82,17.35-.66-2.16-2.74-20.29,1.82-17.35Z" />
      <g>
         <path fill="#a36828" d="M68.54,42.82c2.36-1.22,4.68-4.6,2.41-6.96-2.12-2.2-6.9-.15-8.57,1.81-1.03,1.21-2.68,3.18-2.64,4.9,.1,3.99,6.72,1.34,8.8,.26Z" />
         <path fill="#844b1f" d="M67.6,41.33c2.67-.92,4.2-4.1,.87-4.83-2.55-.55-6.84,1.02-6.47,4.14,.32,2.69,4,1.24,5.6,.69Z" />
      </g>
      <g>
         <path fill="#a36828" d="M113.43,98.54c2.36-1.22,4.68-4.6,2.41-6.97-2.12-2.2-6.9-.14-8.57,1.81-1.04,1.22-2.68,3.18-2.64,4.9,.1,3.99,6.72,1.34,8.8,.26Z" />
         <path fill="#844b1f" d="M112.5,97.05c2.66-.92,4.2-4.11,.87-4.83-2.55-.55-6.84,1.02-6.47,4.14,.32,2.68,4,1.24,5.6,.69Z" />
      </g>
      <g>
         <path fill="#a36828" d="M103.99,113.96c2.36-1.22,4.68-4.6,2.41-6.96-2.12-2.2-6.9-.15-8.57,1.8-1.04,1.22-2.68,3.18-2.64,4.9,.1,3.99,6.71,1.33,8.8,.26Z" />
         <path fill="#844b1f" d="M103.06,112.47c2.66-.92,4.2-4.1,.87-4.83-2.55-.55-6.84,1.02-6.47,4.14,.32,2.68,4,1.24,5.6,.69Z" />
      </g>
      <g>
         <path fill="#a36828" d="M98.52,105.42c1.51-.78,3-2.94,1.54-4.46-1.35-1.4-4.42-.09-5.48,1.15-.66,.78-1.71,2.04-1.69,3.14,.07,2.55,4.3,.85,5.62,.17Z" />
         <path fill="#844b1f" d="M97.92,104.48c1.71-.59,2.69-2.63,.56-3.09-1.63-.35-4.38,.65-4.14,2.65,.21,1.72,2.56,.8,3.58,.45Z" />
      </g>
      <path fill="#ffe24b" d="M125.7,79.37c.09,3.48-3.02,9.3-6.92,9.39-4.32,.1-8.04-5.78-9.61-9.05-.89-1.85-.28-2.87-.39-4.89-.26-4.55-2.07-8.79,5.16-7.29,6.01,1.26,11.6,5.31,11.76,11.84Z" />
      <path fill="#ffefb2" d="M122.94,81.36c-2.03,5.21-7.46,5.18-7.52-.63-.03-3.3,1.86-8.68,6.12-7.15,2.31,.83,2.08,6.04,1.4,7.79Z" />
      <path fill="#ffefb2" d="M40.04,60.03c-1.66,.3-.55,6.03,3.04,2.43,2.89-2.9-.95-5.21-3.04-2.43" />
      <path fill="#ffefb2" d="M59.61,26.64c-1.66,.31-.55,6.03,3.04,2.44,2.89-2.9-.95-5.22-3.04-2.44" />
   </g>
   <g>
      <path fill="#fff" d="M150.75,80.53v-11.23h66.76v11.23h-27.92v47.57h-10.9v-47.57h-27.94Z" />
      <path fill="#fff" d="M226.09,122.3c-1.63-1.78-2.89-3.83-3.79-6.14-.9-2.32-1.35-4.82-1.35-7.51v-19.91c0-2.69,.44-5.17,1.32-7.43,.88-2.27,2.15-4.34,3.82-6.22,1.66-1.88,3.5-3.31,5.52-4.3s4.21-1.49,6.58-1.49h32.26c2.37,0,4.57,.5,6.58,1.49s3.86,2.43,5.52,4.3c1.66,1.88,2.94,3.95,3.82,6.22,.88,2.27,1.32,4.75,1.32,7.43v19.91c0,2.69-.45,5.19-1.35,7.51-.9,2.32-2.16,4.36-3.79,6.14-.78,.85-1.63,1.64-2.55,2.35-.92,.71-1.89,1.33-2.92,1.84s-2.09,.91-3.2,1.19c-1.11,.28-2.26,.42-3.44,.42h-32.26c-1.18,0-2.33-.14-3.44-.42-1.11-.28-2.18-.68-3.2-1.19s-2-1.12-2.91-1.84c-.92-.71-1.77-1.5-2.55-2.35Zm5.74-12.62c0,.92,.18,1.82,.54,2.68,.36,.86,.84,1.62,1.43,2.29,.59,.67,1.27,1.2,2.03,1.61s1.56,.61,2.37,.61h32.26c.82,0,1.61-.2,2.37-.61s1.44-.94,2.03-1.61,1.06-1.43,1.43-2.29c.36-.86,.54-1.75,.54-2.68v-21.97c0-.99-.16-1.93-.49-2.8-.33-.88-.78-1.64-1.36-2.29s-1.25-1.16-2.03-1.53c-.78-.37-1.6-.56-2.49-.56h-32.26c-.88,0-1.71,.19-2.49,.56-.78,.37-1.45,.88-2.03,1.53s-1.03,1.41-1.36,2.29-.49,1.81-.49,2.8v21.97Z" />
      <path fill="#fff" d="M301.53,122.3c-1.63-1.78-2.89-3.83-3.79-6.14-.9-2.32-1.35-4.82-1.35-7.51v-19.91c0-2.69,.44-5.17,1.32-7.43,.88-2.27,2.15-4.34,3.82-6.22,1.66-1.88,3.5-3.31,5.52-4.3s4.21-1.49,6.58-1.49h32.26c2.37,0,4.57,.5,6.58,1.49s3.86,2.43,5.52,4.3,2.94,3.95,3.82,6.22c.88,2.27,1.32,4.75,1.32,7.43v19.91c0,2.69-.45,5.19-1.35,7.51s-2.16,4.36-3.79,6.14c-.78,.85-1.63,1.64-2.55,2.35-.92,.71-1.89,1.33-2.92,1.84s-2.09,.91-3.2,1.19c-1.11,.28-2.26,.42-3.44,.42h-32.26c-1.18,0-2.33-.14-3.44-.42-1.11-.28-2.18-.68-3.2-1.19s-2-1.12-2.91-1.84c-.92-.71-1.77-1.5-2.55-2.35Zm5.74-12.62c0,.92,.18,1.82,.54,2.68,.36,.86,.84,1.62,1.43,2.29,.59,.67,1.27,1.2,2.03,1.61s1.56,.61,2.37,.61h32.26c.82,0,1.61-.2,2.37-.61s1.44-.94,2.03-1.61,1.06-1.43,1.43-2.29c.36-.86,.54-1.75,.54-2.68v-21.97c0-.99-.16-1.93-.49-2.8-.33-.88-.78-1.64-1.36-2.29s-1.25-1.16-2.03-1.53c-.78-.37-1.6-.56-2.49-.56h-32.26c-.88,0-1.71,.19-2.49,.56-.78,.37-1.45,.88-2.03,1.53s-1.03,1.41-1.36,2.29-.49,1.81-.49,2.8v21.97Z" />
      <path fill="#fff" d="M382.73,116.86h55.84v11.24h-60.76c-.89,0-1.71-.16-2.44-.48-.73-.32-1.36-.78-1.89-1.38s-.93-1.31-1.22-2.13c-.29-.83-.43-1.74-.43-2.75v-52.06h10.9v47.56Z" />
      <path fill="#fff" d="M460.23,69.3h51.71v11.23h-51.5c-.83,0-1.56,.17-2.17,.5-.61,.34-1.12,.78-1.53,1.34s-.7,1.19-.9,1.9c-.2,.71-.3,1.43-.29,2.17,0,.74,.11,1.47,.32,2.17,.21,.71,.51,1.34,.92,1.9,.41,.56,.92,1.01,1.53,1.34s1.32,.5,2.12,.5l37.66,.06c1.75,0,3.35,.23,4.8,.69s2.75,1.1,3.9,1.92c1.15,.82,2.16,1.79,3.03,2.91s1.58,2.34,2.15,3.66c.57,1.32,1,2.72,1.29,4.18,.28,1.46,.43,2.95,.43,4.46,.01,1.47-.12,2.93-.41,4.38-.29,1.45-.71,2.83-1.29,4.16-.57,1.32-1.29,2.55-2.15,3.69-.86,1.13-1.88,2.11-3.04,2.94-1.16,.83-2.47,1.48-3.92,1.95-1.45,.48-3.05,.71-4.79,.71h-51.6v-11.24h51.39c.82,0,1.54-.21,2.15-.64,.62-.43,1.13-.97,1.54-1.62,.41-.65,.72-1.37,.92-2.14,.21-.78,.31-1.51,.31-2.19,0-.63-.1-1.28-.31-1.94s-.51-1.26-.92-1.8c-.41-.53-.92-.97-1.54-1.31-.61-.34-1.33-.51-2.15-.51l-37.66-.06c-2.09,0-3.97-.33-5.64-.99-1.67-.66-3.13-1.55-4.38-2.69-1.25-1.13-2.29-2.45-3.12-3.96-.83-1.5-1.45-3.11-1.86-4.81-.41-1.7-.62-3.44-.62-5.23s.21-3.53,.63-5.23c.42-1.7,1.05-3.3,1.88-4.81s1.87-2.83,3.12-3.96,2.7-2.03,4.37-2.69c1.66-.66,3.53-.99,5.61-.99Z" />
   </g>
   <g>
      <path fill="#ffbf00" d="M150.75,65.69l30.68-53.88c1.58-2.8,3.14-4.19,4.68-4.19s3.1,1.4,4.68,4.19l30.68,53.88h-12.53l-22.83-40.39-22.83,40.39h-12.53Z" />
      <path fill="#ffbf00" d="M228.05,14.71c0-.99,.13-1.88,.4-2.69,.27-.81,.65-1.5,1.15-2.09s1.09-1.03,1.79-1.35c.69-.32,1.46-.47,2.31-.47h4.17c.4,0,.79,.06,1.19,.19,.39,.12,.77,.3,1.13,.52s.69,.5,.99,.81c.3,.32,.57,.66,.79,1.05l21.37,37.82,21.37-37.82c.22-.38,.49-.73,.79-1.05,.31-.32,.64-.59,1-.81s.73-.4,1.13-.52c.39-.12,.79-.19,1.19-.19h4.15c.84,0,1.61,.16,2.31,.47,.69,.32,1.29,.76,1.79,1.35s.88,1.28,1.15,2.09c.27,.81,.4,1.71,.4,2.69l.04,50.98h-10.3V26.29l-20.33,35.7c-.25,.44-.54,.9-.87,1.4s-.7,.95-1.1,1.36c-.4,.41-.83,.75-1.28,1.03-.46,.27-.94,.41-1.44,.41s-.97-.14-1.43-.41c-.46-.27-.89-.62-1.28-1.03-.4-.41-.76-.86-1.09-1.36s-.62-.96-.86-1.4l-20.35-35.74v39.44h-10.3l.04-50.98Z" />
      <path fill="#ffbf00" d="M312.59,8.11h43.92c1.65,0,3.17,.23,4.54,.69,1.37,.46,2.61,1.09,3.72,1.9,1.11,.81,2.08,1.77,2.91,2.87,.83,1.1,1.53,2.3,2.08,3.59,.55,1.29,.97,2.65,1.25,4.07s.42,2.87,.42,4.32c0,2.07-.28,4.09-.83,6.05-.55,1.96-1.39,3.74-2.52,5.33,1.1,1.62,1.93,3.42,2.49,5.41,.56,1.99,.84,4.02,.85,6.09,0,1.44-.13,2.87-.4,4.29-.27,1.42-.68,2.77-1.22,4.04-.55,1.28-1.23,2.46-2.05,3.56-.82,1.1-1.79,2.04-2.9,2.84-1.11,.8-2.36,1.42-3.75,1.87s-2.93,.68-4.6,.68h-43.92c-.85,0-1.61-.16-2.31-.47-.69-.32-1.29-.76-1.79-1.35s-.88-1.28-1.15-2.09c-.27-.81-.4-1.71-.4-2.69V14.71c0-.99,.13-1.88,.4-2.69,.27-.81,.65-1.5,1.15-2.09s1.09-1.03,1.79-1.35c.69-.32,1.46-.47,2.31-.47Zm4.65,11v11.66h39.11c1.04,0,1.91-.29,2.6-.86,.69-.58,1.2-1.3,1.54-2.16,.34-.86,.51-1.8,.51-2.81s-.18-1.94-.53-2.81c-.35-.86-.87-1.58-1.56-2.16-.69-.58-1.54-.86-2.56-.86h-39.11Zm0,35.57h39.11c.66,0,1.23-.19,1.73-.56,.5-.37,.91-.86,1.24-1.46,.33-.6,.57-1.29,.74-2.07,.16-.77,.25-1.57,.25-2.37s-.08-1.6-.25-2.37c-.17-.77-.41-1.46-.74-2.07-.33-.6-.74-1.09-1.24-1.46-.5-.37-1.08-.56-1.73-.56h-39.11v12.91Z" />
      <path fill="#ffbf00" d="M378.41,59.09V14.71c0-.99,.13-1.88,.4-2.69,.27-.81,.65-1.5,1.15-2.09s1.09-1.03,1.79-1.35c.69-.32,1.46-.47,2.31-.47h57.42v11h-52.77v11.66h46.37v11h-46.37v12.91h52.77v11h-57.42c-.85,0-1.61-.16-2.31-.47-.69-.32-1.29-.76-1.79-1.35s-.88-1.28-1.15-2.09c-.27-.81-.4-1.71-.4-2.69Z" />
      <path fill="#ffbf00" d="M454.09,8.11h43.95c1.65,0,3.17,.23,4.53,.7s2.6,1.1,3.7,1.91c1.1,.81,2.05,1.77,2.87,2.88s1.49,2.31,2.03,3.61,.94,2.65,1.21,4.07c.27,1.42,.4,2.85,.39,4.29,0,1.47-.13,2.92-.4,4.36-.27,1.44-.68,2.81-1.21,4.1-.54,1.3-1.22,2.49-2.03,3.59-.82,1.1-1.77,2.05-2.86,2.85s-2.32,1.43-3.69,1.88c-1.37,.45-2.88,.68-4.53,.68h-.19l15.84,22.66h-12.76l-15.84-22.66h-26.35v22.66h-10.28l-.02-50.98c0-.99,.13-1.88,.4-2.69,.27-.81,.65-1.5,1.15-2.09s1.09-1.03,1.79-1.35c.69-.32,1.46-.47,2.31-.47Zm43.76,23.91c.76,0,1.43-.19,2.01-.56s1.06-.86,1.44-1.46c.39-.6,.68-1.29,.87-2.07s.29-1.57,.3-2.38c0-.81-.09-1.6-.27-2.37-.19-.77-.47-1.46-.85-2.07s-.86-1.09-1.44-1.46c-.58-.37-1.26-.56-2.05-.56h-39.11v12.91h39.11Z" />
   </g>
</svg>